<?xml version="1.0" encoding="utf-8"?>
<!-- Generator: Adobe Illustrator 16.0.0, SVG Export Plug-In . SVG Version: 6.00 Build 0)  -->
<!DOCTYPE svg PUBLIC "-//W3C//DTD SVG 1.1//EN" "http://www.w3.org/Graphics/SVG/1.1/DTD/svg11.dtd">
<svg version="1.1" id="Layer_1" xmlns="http://www.w3.org/2000/svg" xmlns:xlink="http://www.w3.org/1999/xlink" x="0px" y="0px"
	 width="45px" height="45px" viewBox="277.5 277.5 45 45" enable-background="new 277.5 277.5 45 45" xml:space="preserve">
<g>
	<path fill="#333333" d="M298.473,298.13c-3.38-0.838-1.53-3.789,1.209-3.745c2.658,0.043,4.009,2.907,5.214,2.759
		c1.209-0.148,2.236-1.994,0.338-3.645c-1.643-1.431-3.717-2.218-6.906-1.922c-2.502,0.231-4.878,1.873-5.168,5.073
		c-0.29,3.203,3.431,4.829,6.377,5.273c2.064,0.31,4.88,1.329,3.189,3.299c-1.555,1.813-4.494,0.691-5.267,0.2
		c-0.773-0.495-1.644-2.27-3.094-2.17c-1.452,0.097-2.166,2.04-0.385,3.743c1.595,1.526,3.334,2.364,7.052,2.167
		c3.722-0.197,7.054-3.546,5.749-6.699C305.479,299.311,301.857,298.968,298.473,298.13z"/>
	<path fill="#333333" d="M300,277.5c-12.427,0-22.5,10.072-22.5,22.5c0,12.426,10.073,22.5,22.5,22.5s22.5-10.074,22.5-22.5
		C322.5,287.573,312.427,277.5,300,277.5z M305.756,312.729c-1.354,0-2.615-0.394-3.688-1.067c-0.69,0.127-1.4,0.198-2.129,0.198
		c-6.458,0-11.688-5.282-11.688-11.798c0-0.631,0.049-1.253,0.145-1.859c-0.711-1.108-1.124-2.43-1.124-3.853
		c0-3.909,3.121-7.078,6.975-7.078c1.405,0,2.711,0.423,3.81,1.149c0.612-0.104,1.242-0.156,1.883-0.156
		c6.455,0,11.688,5.284,11.688,11.799c0,0.541-0.039,1.075-0.108,1.601c0.765,1.136,1.211,2.509,1.211,3.987
		C312.73,309.562,309.609,312.729,305.756,312.729z"/>
</g>
</svg>
