<?xml version="1.0" encoding="utf-8"?>
<!-- Generator: Adobe Illustrator 16.0.0, SVG Export Plug-In . SVG Version: 6.00 Build 0)  -->
<!DOCTYPE svg PUBLIC "-//W3C//DTD SVG 1.1//EN" "http://www.w3.org/Graphics/SVG/1.1/DTD/svg11.dtd">
<svg version="1.1" id="background" xmlns="http://www.w3.org/2000/svg" xmlns:xlink="http://www.w3.org/1999/xlink" x="0px" y="0px"
	 width="171.5px" height="132.5px" viewBox="0 0 171.5 132.5" enable-background="new 0 0 171.5 132.5" xml:space="preserve">
<g>
	<circle fill="#FFFFFF" cx="4.25" cy="92.25" r="4.25"/>
	<circle fill="#FFFFFF" cx="48.25" cy="128.25" r="4.25"/>
	<circle fill="#FFFFFF" cx="72.75" cy="52.75" r="4.75"/>
	<circle fill="#FFFFFF" cx="8.25" cy="22.25" r="4.25"/>
	<circle fill="#FFFFFF" cx="117.25" cy="96.25" r="2.75"/>
	<circle fill="#FFFFFF" cx="126.25" cy="41.25" r="1.911"/>
	<circle fill="#FFFFFF" cx="167.25" cy="4.25" r="4.25"/>
</g>
<g>
	<polygon fill="#FFFFFF" points="10.417,24.339 69.083,53.417 69.083,51.917 10.875,23.063 	"/>
	<polygon fill="#FFFFFF" points="8.25,26 9.563,25.563 46.484,125.328 45.578,125.781 	"/>
	<polygon fill="#FFFFFF" points="76.563,53.969 76.719,52.75 124.969,41 125.281,42.031 	"/>
	<polygon fill="#FFFFFF" points="75.125,55.938 76.063,55.125 116.375,94.625 115.625,95.167 	"/>
	<polygon fill="#FFFFFF" points="126.917,39.917 127.583,40.625 164.75,7.25 164.172,6.375 	"/>
	<polygon fill="#FFFFFF" points="164.906,7.375 165.906,7.719 118.781,94.484 117.844,94.078 	"/>
	<polygon fill="#FFFFFF" points="115.042,95.625 115.042,96.583 8,92.828 8,91.922 	"/>
	<polygon fill="#FFFFFF" points="114.906,96.828 115.266,97.703 51.5,127.208 51.063,126.313 	"/>
	<polygon fill="#FFFFFF" points="46.031,125.781 45.297,126.438 6.781,95.063 7.484,94.375 	"/>
</g>
</svg>
