<?xml version="1.0" encoding="utf-8"?>
<!-- Generator: Adobe Illustrator 16.0.0, SVG Export Plug-In . SVG Version: 6.00 Build 0)  -->
<!DOCTYPE svg PUBLIC "-//W3C//DTD SVG 1.0//EN" "http://www.w3.org/TR/2001/REC-SVG-20010904/DTD/svg10.dtd">
<svg version="1.0" id="background" xmlns="http://www.w3.org/2000/svg" xmlns:xlink="http://www.w3.org/1999/xlink" x="0px" y="0px"
	 width="186.861px" height="110.965px" viewBox="0 0 186.861 110.965" enable-background="new 0 0 186.861 110.965"
	 xml:space="preserve">
<g>
	<circle fill="#FFFFFF" cx="33.16" cy="17.827" r="2.833"/>
	<circle fill="#FFFFFF" cx="87.66" cy="7.91" r="2.833"/>
	<circle fill="#FFFFFF" cx="48.982" cy="49.604" r="2.833"/>
	<circle fill="#FFFFFF" cx="111.13" cy="23.354" r="2.833"/>
	<circle fill="#FFFFFF" cx="88.065" cy="73.645" r="2.833"/>
	<circle fill="#FFFFFF" cx="121.801" cy="63.52" r="2.833"/>
	<circle fill="#FFFFFF" cx="123.171" cy="79.005" r="2.833"/>
	<circle fill="#FFFFFF" cx="176.274" cy="27.122" r="2.833"/>
	<circle fill="#FFFFFF" cx="136.642" cy="5.203" r="5.056"/>
	<path fill="#FFFFFF" d="M186.948,93.204c0,2.791-2.266,5.054-5.057,5.054c-2.792,0-5.055-2.263-5.055-5.054
		c0-2.794,2.263-5.058,5.055-5.058C184.682,88.146,186.948,90.41,186.948,93.204z"/>
	<path fill="#FFFFFF" d="M75.948,105.704c0,2.791-2.266,5.054-5.057,5.054c-2.792,0-5.055-2.263-5.055-5.054
		c0-2.794,2.263-5.058,5.055-5.058C73.682,100.646,75.948,102.91,75.948,105.704z"/>
	<path fill="#FFFFFF" d="M10.239,78.125c0,2.791-2.266,5.054-5.057,5.054c-2.792,0-5.055-2.263-5.055-5.054
		c0-2.794,2.263-5.058,5.055-5.058C7.973,73.068,10.239,75.332,10.239,78.125z"/>
</g>
<g>
	<polygon fill="#FFFFFF" points="35.743,16.858 88.065,7.233 86.743,8.545 35.743,17.826 	"/>
	<polygon fill="#FFFFFF" points="87.293,8.743 88.243,8.743 71.712,102.202 70.892,101.983 	"/>
	<polygon fill="#FFFFFF" points="31.597,19.983 32.514,19.983 7.18,74.483 6.014,74.483 	"/>
	<polygon fill="#FFFFFF" points="8.845,80.397 66.262,104.564 67.428,103.647 8.845,79.004 	"/>
	<polygon fill="#FFFFFF" points="9.428,77.314 120.337,63.242 120.337,64.147 9.428,78.269 	"/>
	<polygon fill="#FFFFFF" points="50.844,50.481 119.669,63.327 119.669,62.565 51.26,49.678 	"/>
	<polygon fill="#FFFFFF" points="73.842,102.565 119.669,64.648 120.337,65.148 74.676,103.231 	"/>
	<polygon fill="#FFFFFF" points="121.8,65.815 122.676,65.315 123.17,77.398 122.485,78.269 	"/>
	<polygon fill="#FFFFFF" points="125.345,79.004 178.345,91.983 178.345,93.192 124.648,79.983 	"/>
	<polygon fill="#FFFFFF" points="88.243,71.792 109.743,25.045 110.618,25.42 88.868,72.295 	"/>
	<polygon fill="#FFFFFF" points="88.243,72.858 133.618,8.743 134.305,9.045 89.243,72.858 	"/>
	<polygon fill="#FFFFFF" points="112.567,25.045 113.368,24.42 179.122,89.858 178.345,91.108 	"/>
	<polygon fill="#FFFFFF" points="137.805,8.743 179.122,89.858 180.43,89.858 138.93,8.743 	"/>
	<polygon fill="#FFFFFF" points="123.805,77.233 174.555,28.108 175.18,28.983 124.648,78.269 	"/>
	<polygon fill="#FFFFFF" points="180.93,88.983 176.273,28.858 177.305,28.858 181.892,88.983 	"/>
</g>
</svg>
