<?xml version="1.0" encoding="utf-8"?>
<!-- Generator: Adobe Illustrator 21.0.0, SVG Export Plug-In . SVG Version: 6.00 Build 0)  -->
<svg version="1.1" id="hw" xmlns="http://www.w3.org/2000/svg" xmlns:xlink="http://www.w3.org/1999/xlink" x="0px" y="0px"
	 viewBox="0 0 1701 130" style="enable-background:new 0 0 1701 130;" xml:space="preserve">
<style type="text/css">
	.st0{enable-background:new    ;}
</style>
<g class="st0">
	<path d="M5.1,7.3h1.8v46.5h20.6V7.3h1.7V109h-1.7V58.7H6.9V109H5.1V7.3z"/>
	<path d="M48.8,7.3h1.9L64.4,109h-1.9l-3.8-28.4H40.4L36.6,109h-1.9L48.8,7.3z M58.1,75.8l-8.4-63.6l-8.6,63.6H58.1z"/>
	<path d="M65.9,104.1h2.5c4.1-12.3,6.2-33.5,6.2-68.3V7.3h19.1v96.8h3.8v31h-1.7V109H67.6v26.1h-1.7V104.1z M92,104.1V12.2H76.3
		v23.5c0,34.9-2.2,56.3-5.7,68.3H92z"/>
	<path d="M103.7,7.3h2.8l13.2,93l13.2-93h2.8V109H134V13.9h-0.1L120.3,109h-1.1l-13.6-95.1h-0.1V109h-1.8V7.3z"/>
	<path d="M145.2,7.3h1.8V109h-1.8V7.3z"/>
	<path d="M156.3,7.3h9c5.3,0,10.4,6.7,10.4,25.8c0,17.5-4.4,26.8-10,26.8h-7.6v49h-1.8V7.3z M165.7,55.3c4.4,0,8.2-6.6,8.2-22.1
		c0-15.7-4.1-21.1-8.4-21.1h-7.4v43.2H165.7z"/>
	<path d="M182.8,7.3h1.8v46.5h20.6V7.3h1.7V109h-1.7V58.7h-20.6V109h-1.8V7.3z"/>
	<path d="M216.3,7.3h19.4v4.9H218v41.6h16.6v4.7H218v45.5h18.3v4.9h-20V7.3z"/>
	<path d="M282,95.3c-2.5,10.2-7,16.4-11.8,16.4c-9.8,0-16.8-22.5-16.8-53.6s7-53.6,16.8-53.6c4.2,0,8.5,4.9,11,13.9l-1.2,3.6
		c-2.2-8-6.1-12.6-9.8-12.6c-9,0-15,21.8-15,48.7c0,26.7,5.9,48.7,15,48.7c3.9,0,8.1-4.7,10.5-14.6L282,95.3z"/>
	<path d="M288.3,7.3h23.8V109h-1.7V12.2h-20.3V109h-1.8V7.3z"/>
	<path d="M320,58.1c0-31.2,7.1-53.6,16.9-53.6c9.7,0,16.8,22.4,16.8,53.6s-7.2,53.6-16.8,53.6C327.1,111.7,320,89.3,320,58.1z
		 M351.8,58.1c0-26.9-6-48.8-15-48.8c-9,0-15.1,22-15.1,48.8c0,26.7,5.9,48.8,15.1,48.8C345.9,107,351.8,84.8,351.8,58.1z"/>
	<path d="M373.5,53.8l-16-46.5h2.5l15.7,46.4V7.3h1.7v46.4L393,7.3h2.5l-16,46.5l16.9,55.1h-2.5l-16.5-54.6V109h-1.7V54.4L359.1,109
		h-2.5L373.5,53.8z"/>
	<path d="M402,7.3h1.8v93.9h0.1l20.8-93.9h2.2V109h-1.7v-94h-0.1l-20.8,94H402V7.3z"/>
	<path d="M436.2,7.3h9.2c5,0,10.2,5.5,10.2,24.6c0,13.4-3,20.8-6.4,23.1v0.3c3.6,1.1,7.9,9.2,7.9,26.3c0,20.2-5.5,27.4-11,27.4h-9.9
		V7.3z M445.4,53.3c4.1,0,8.4-5.9,8.4-20.8c0-15.4-4.2-20.4-8.9-20.4h-7v41.2H445.4z M445.8,104.2c5.4,0,9.6-6.6,9.6-22.5
		c0-16.9-4.6-23.8-9.1-23.8H438v46.4H445.8z"/>
	<path d="M474.9,7.3h1.9L490.5,109h-1.9l-3.8-28.4h-18.3l-3.8,28.4h-1.9L474.9,7.3z M484.2,75.8l-8.4-63.6l-8.6,63.6H484.2z"/>
	<path d="M495.9,7.3h1.8v46.5h20.6V7.3h1.7V109h-1.7V58.7h-20.6V109h-1.8V7.3z"/>
	<path d="M529.5,7.3h1.8v46.5h20.6V7.3h1.7V109h-1.7V58.7h-20.6V109h-1.8V7.3z"/>
	<path d="M569.9,62.9c-4.7-1.6-8.8-10.2-8.8-28.1c0-20.2,5.4-27.4,11-27.4h9V109h-1.8V63.2h-7.6l-8.9,45.8h-2.1L569.9,62.9z
		 M579.4,58.4V12h-7.1c-4.8,0-9.4,5.7-9.4,22.7c0,16.5,4.1,23.7,8.9,23.7H579.4z"/>
	<path d="M612.2,7.3h1.9L627.8,109h-1.9l-3.8-28.4h-18.3l-3.8,28.4h-1.9L612.2,7.3z M621.5,75.8L613,12.2l-8.6,63.6H621.5z"/>
	<path d="M629.4,109.1l0.4-4.9c0.7,0.4,1.3,0.9,1.8,0.9c6.5,0,8.4-25.7,8.4-75V7.3h18.6V109h-1.8V12h-15.2v19.7
		c0,49.8-2.1,78.3-9.9,78.3C631.2,110,630.2,109.7,629.4,109.1z"/>
	<path d="M667.9,7.3h1.8v46.4l16.2-46.4h2.5l-16.5,46.5l17.4,55.1h-2.5l-17-54.6V109h-1.8V7.3z"/>
	<path d="M692.1,58.1c0-31.2,7.1-53.6,16.9-53.6c9.7,0,16.8,22.4,16.8,53.6s-7.2,53.6-16.8,53.6C699.3,111.7,692.1,89.3,692.1,58.1z
		 M724,58.1c0-26.9-6-48.8-15-48.8c-9,0-15.1,22-15.1,48.8c0,26.7,5.9,48.8,15.1,48.8C718.1,107,724,84.8,724,58.1z"/>
	<path d="M733.6,7.3H751v4.9h-15.6V109h-1.8V7.3z"/>
	<path d="M753.4,58.1c0-31.2,7.1-53.6,16.9-53.6c9.7,0,16.8,22.4,16.8,53.6s-7.2,53.6-16.8,53.6C760.6,111.7,753.4,89.3,753.4,58.1z
		 M785.3,58.1c0-26.9-6-48.8-15-48.8c-9,0-15.1,22-15.1,48.8c0,26.7,5.9,48.8,15.1,48.8C779.4,107,785.3,84.8,785.3,58.1z"/>
	<path d="M789.6,109.1l0.4-4.9c0.7,0.4,1.3,0.9,1.8,0.9c6.5,0,8.4-25.7,8.4-75V7.3h18.6V109H817V12h-15.2v19.7
		c0,49.8-2.1,78.3-9.9,78.3C791.4,110,790.4,109.7,789.6,109.1z"/>
	<path d="M837.7,58.7h-7.8V109h-1.8V7.3h1.8V54h7.8c0.5-27.3,6.4-49.2,15.5-49.2c9.4,0,15.5,23.8,15.5,52.6
		c0,30.9-6.2,54.3-15.5,54.3C844,111.5,837.9,88.9,837.7,58.7z M867,57.3c0-23.8-5.1-47.8-13.8-47.8c-8.7,0-13.7,24-13.7,47.8
		c0,25.8,4.9,49.4,13.7,49.4S867,83.1,867,57.3z"/>
	<path d="M888,7.3h1.8v96.8h17.4V7.3h1.7v96.8h17.4V7.3h1.7V109H888V7.3z"/>
	<path d="M937.4,7.3h1.8v46.4l16.2-46.4h2.5l-16.5,46.5l17.4,55.1h-2.5l-17-54.6V109h-1.8V7.3z"/>
	<path d="M964.3,7.3h1.8V109h-1.8V7.3z"/>
	<path d="M971.5,104.1h2.5c4.1-12.3,6.2-33.5,6.2-68.3V7.3h19.1v96.8h3.8v31h-1.7V109h-28.1v26.1h-1.7V104.1z M997.6,104.1V12.2
		h-15.7v23.5c0,34.9-2.2,56.3-5.7,68.3H997.6z"/>
	<path d="M1005.5,109.1l0.4-4.9c0.7,0.4,1.3,0.9,1.8,0.9c6.5,0,8.4-25.7,8.4-75V7.3h18.6V109h-1.8V12h-15.2v19.7
		c0,49.8-2.1,78.3-9.9,78.3C1007.3,110,1006.3,109.7,1005.5,109.1z"/>
	<path d="M1044,7.3h1.8v93.9h0.1l20.8-93.9h2.2V109h-1.7v-94h-0.1l-20.8,94h-2.2V7.3z"/>
	<path d="M1078.3,7.3h9.2c5,0,10.2,5.5,10.2,24.6c0,13.4-3,20.8-6.4,23.1v0.3c3.6,1.1,7.9,9.2,7.9,26.3c0,20.2-5.5,27.4-11,27.4
		h-9.9V7.3z M1087.5,53.3c4.1,0,8.4-5.9,8.4-20.8c0-15.4-4.2-20.4-8.9-20.4h-7v41.2H1087.5z M1087.8,104.2c5.4,0,9.6-6.6,9.6-22.5
		c0-16.9-4.6-23.8-9.1-23.8h-8.3v46.4H1087.8z"/>
	<path d="M1106.8,7.3h19.4v4.9h-17.7v41.6h16.6v4.7h-16.6v45.5h18.3v4.9h-20V7.3z"/>
	<path d="M1141.6,104.1h2.5c4.1-12.3,6.2-33.5,6.2-68.3V7.3h19.1v96.8h3.8v31h-1.7V109h-28.1v26.1h-1.7V104.1z M1167.7,104.1V12.2
		H1152v23.5c0,34.9-2.2,56.3-5.7,68.3H1167.7z"/>
	<path d="M1175.6,109.1l0.4-4.9c0.7,0.4,1.3,0.9,1.8,0.9c6.5,0,8.4-25.7,8.4-75V7.3h18.6V109h-1.8V12h-15.2v19.7
		c0,49.8-2.1,78.3-9.9,78.3C1177.3,110,1176.4,109.7,1175.6,109.1z"/>
	<path d="M1221,62.9c-4.7-1.6-8.8-10.2-8.8-28.1c0-20.2,5.4-27.4,11-27.4h9V109h-1.8V63.2h-7.6L1214,109h-2.1L1221,62.9z
		 M1230.5,58.4V12h-7.1c-4.8,0-9.4,5.7-9.4,22.7c0,16.5,4.1,23.7,8.9,23.7H1230.5z"/>
	<path d="M1253.1,7.3h9.2c5,0,10.2,5.5,10.2,24.6c0,13.4-3,20.8-6.4,23.1v0.3c3.6,1.1,7.9,9.2,7.9,26.3c0,20.2-5.5,27.4-11,27.4
		h-9.9V7.3z M1262.3,53.3c4.1,0,8.4-5.9,8.4-20.8c0-15.4-4.2-20.4-8.9-20.4h-7v41.2H1262.3z M1262.7,104.2c5.4,0,9.6-6.6,9.6-22.5
		c0-16.9-4.6-23.8-9.1-23.8h-8.3v46.4H1262.7z"/>
	<path d="M1291.8,7.3h1.9l13.7,101.7h-1.9l-3.8-28.4h-18.3l-3.8,28.4h-1.9L1291.8,7.3z M1301.1,75.8l-8.4-63.6l-8.6,63.6H1301.1z"/>
	<path d="M1312.8,7.3h1.8v96.8h17.4V7.3h1.7v96.8h17.4V7.3h1.7V109h-39.9V7.3z"/>
	<path d="M1360.6,58.1c0-31.2,7.1-53.6,16.9-53.6c9.7,0,16.8,22.4,16.8,53.6s-7.2,53.6-16.8,53.6
		C1367.7,111.7,1360.6,89.3,1360.6,58.1z M1392.4,58.1c0-26.9-6-48.8-15-48.8c-9,0-15.1,22-15.1,48.8c0,26.7,5.9,48.8,15.1,48.8
		C1386.5,107,1392.4,84.8,1392.4,58.1z"/>
	<path d="M1402,7.3h17.4v4.9h-15.6V109h-1.8V7.3z"/>
	<path d="M1421.9,58.1c0-31.2,7.1-53.6,16.9-53.6c9.7,0,16.8,22.4,16.8,53.6s-7.2,53.6-16.8,53.6
		C1429.1,111.7,1421.9,89.3,1421.9,58.1z M1453.7,58.1c0-26.9-6-48.8-15-48.8c-9,0-15.1,22-15.1,48.8c0,26.7,5.9,48.8,15.1,48.8
		C1447.8,107,1453.7,84.8,1453.7,58.1z"/>
	<path d="M1472.4,98.5l1.2-3.4c2.3,7.6,5.3,11.9,8.7,11.9c4.9,0,9-10.1,9-26c0-15.1-4.3-23.1-9.4-23.1h-2.5v-4.7h2.2
		c4.7,0,8.6-7,8.6-22.1c0-13.4-3.4-21.8-7.8-21.8c-3.2,0-5.6,3.7-7.5,10.3l-1.2-3.2c2.3-8,5.1-11.8,8.6-11.8c5.9,0,9.6,9.8,9.6,26.6
		c0,12.9-2.9,21.7-6.3,24.1v0.1c4.1,1.9,7.5,11.5,7.5,25.6c0,18.8-4.6,30.7-10.7,30.7C1478.1,111.7,1474.7,106.8,1472.4,98.5z"/>
	<path d="M1497,104.1h2.5c4.1-12.3,6.2-33.5,6.2-68.3V7.3h19.1v96.8h3.8v31h-1.7V109h-28.1v26.1h-1.7V104.1z M1523,104.1V12.2h-15.7
		v23.5c0,34.9-2.2,56.3-5.7,68.3H1523z"/>
	<path d="M1533.1,58.1c0-31.2,7.1-53.6,16.9-53.6c9.7,0,16.8,22.4,16.8,53.6s-7.2,53.6-16.8,53.6
		C1540.3,111.7,1533.1,89.3,1533.1,58.1z M1565,58.1c0-26.9-6-48.8-15-48.8c-9,0-15.1,22-15.1,48.8c0,26.7,5.9,48.8,15.1,48.8
		C1559.1,107,1565,84.8,1565,58.1z"/>
	<path d="M1574.6,7.3h9c5.3,0,10.4,6.7,10.4,25.8c0,17.5-4.4,26.8-10,26.8h-7.6v49h-1.8V7.3z M1583.9,55.3c4.4,0,8.2-6.6,8.2-22.1
		c0-15.7-4.1-21.1-8.4-21.1h-7.4v43.2H1583.9z"/>
	<path d="M1599.4,58.1c0-31.2,7.1-53.6,16.9-53.6c9.7,0,16.8,22.4,16.8,53.6s-7.2,53.6-16.8,53.6
		C1606.6,111.7,1599.4,89.3,1599.4,58.1z M1631.3,58.1c0-26.9-6-48.8-15-48.8c-9,0-15.1,22-15.1,48.8c0,26.7,5.9,48.8,15.1,48.8
		C1625.3,107,1631.3,84.8,1631.3,58.1z"/>
	<path d="M1640.9,7.3h9.2c5,0,10.2,5.5,10.2,24.6c0,13.4-3,20.8-6.4,23.1v0.3c3.6,1.1,7.9,9.2,7.9,26.3c0,20.2-5.5,27.4-11,27.4
		h-9.9V7.3z M1650.1,53.3c4.1,0,8.4-5.9,8.4-20.8c0-15.4-4.2-20.4-8.9-20.4h-7v41.2H1650.1z M1650.4,104.2c5.4,0,9.6-6.6,9.6-22.5
		c0-16.9-4.6-23.8-9.1-23.8h-8.3v46.4H1650.4z"/>
	<path d="M1669.9,7.3h1.6v33h-1.6V7.3z"/>
	<path d="M1688.3,62.9c-4.7-1.6-8.8-10.2-8.8-28.1c0-20.2,5.4-27.4,11-27.4h9V109h-1.8V63.2h-7.6l-8.9,45.8h-2.1L1688.3,62.9z
		 M1697.7,58.4V12h-7.1c-4.8,0-9.4,5.7-9.4,22.7c0,16.5,4.1,23.7,8.9,23.7H1697.7z"/>
</g>
</svg>
