<?xml version="1.0" encoding="utf-8"?>
<!-- Generator: Adobe Illustrator 21.0.0, SVG Export Plug-In . SVG Version: 6.00 Build 0)  -->
<svg version="1.0" id="lsic_1" xmlns="http://www.w3.org/2000/svg" xmlns:xlink="http://www.w3.org/1999/xlink" x="0px" y="0px"
	 viewBox="0 0 134 121" style="enable-background:new 0 0 134 121;" xml:space="preserve">
<style type="text/css">
	.lsic_1_st0{filter:url(#Filter_lsall);}
	.lsic_1_st1{fill:#FFFFFF;}
	.lsic_1_st2{opacity:0.3;fill:url(#ls_grad);}
	.lsic_1_st3{fill:none;stroke:url(#ls_grad);stroke-width:2;stroke-linecap:round;stroke-linejoin:round;stroke-miterlimit:10;}
	.lsic_1_st4{fill:none;stroke:url(#ls_grad);stroke-width:2;stroke-linecap:round;stroke-linejoin:round;stroke-miterlimit:10;}
	.lsic_1_st5{fill:none;stroke:url(#ls_grad);stroke-width:2;stroke-linecap:round;stroke-linejoin:round;stroke-miterlimit:10;}
	.lsic_1_st6{fill:none;stroke:url(#ls_grad);stroke-width:2;stroke-linecap:round;stroke-linejoin:round;stroke-miterlimit:10;}
	.lsic_1_st7{fill:none;stroke:url(#ls_grad);stroke-width:2;stroke-linecap:round;stroke-linejoin:round;stroke-miterlimit:10;}
	.lsic_1_st8{fill:none;stroke:url(#ls_grad);stroke-width:2;stroke-linecap:round;stroke-linejoin:round;stroke-miterlimit:10;}
	.lsic_1_st9{fill:none;stroke:url(#ls_grad);stroke-width:2;stroke-linecap:round;stroke-linejoin:round;stroke-miterlimit:10;}
	.lsic_1_st10{fill:none;stroke:url(#ls_grad);stroke-width:2;stroke-linecap:round;stroke-linejoin:round;stroke-miterlimit:10;}
	.lsic_1_st11{fill:none;stroke:url(#ls_grad);stroke-width:2;stroke-linecap:round;stroke-linejoin:round;stroke-miterlimit:10;}
	.lsic_1_st12{fill:none;stroke:url(#ls_grad);stroke-width:2;stroke-linecap:round;stroke-linejoin:round;stroke-miterlimit:10;}
	.lsic_1_st13{fill:none;stroke:url(#ls_grad);stroke-width:2;stroke-linecap:round;stroke-linejoin:round;stroke-miterlimit:10;}
	.lsic_1_st14{fill:none;stroke:url(#ls_grad);stroke-width:2;stroke-linecap:round;stroke-linejoin:round;stroke-miterlimit:10;}
	.lsic_1_st15{fill:none;stroke:url(#ls_grad);stroke-width:2;stroke-linecap:round;stroke-linejoin:round;stroke-miterlimit:10;}
	.lsic_1_st16{fill:none;stroke:url(#ls_grad);stroke-width:2;stroke-linecap:round;stroke-linejoin:round;stroke-miterlimit:10;}
	.lsic_1_st17{fill:none;stroke:url(#ls_grad);stroke-width:2;stroke-linecap:round;stroke-linejoin:round;stroke-miterlimit:10;}
	.lsic_1_st18{fill:none;stroke:url(#ls_grad);stroke-width:2;stroke-linecap:round;stroke-linejoin:round;stroke-miterlimit:10;}
	.lsic_1_st19{fill:none;stroke:url(#ls_grad);stroke-width:2;stroke-linecap:round;stroke-linejoin:round;stroke-miterlimit:10;}



	.lsic_1_st4, .lsic_1_st5, .lsic_1_st10, .lsic_1_st11, .lsic_1_st12, .lsic_1_st13, .lsic_1_st15, .lsic_1_st16, .lsic_1_st17, .lsic_1_st18, .lsic_1_st19{
	transition: all 1s 0.8s ease-in-out;
    stroke-dasharray: 50;
    stroke-dashoffset: 50;
	}

		.lsic_1_st6, .lsic_1_st7, .lsic_1_st8, .lsic_1_st9, .lsic_1_st14{
	 transition: all 1.2s 0.8s ease-in-out;
    stroke-dasharray: 100;
    stroke-dashoffset: 100;
	}

	.lsic_1_st3{ transition: all 1.5s 0.8s ease-in-out;
    stroke-dasharray: 200;
    stroke-dashoffset: 200;}

	.lsic_1_inn_op{opacity:0;transition: all 1s 1.5s ease-in-out;}


	.lsic_1_st0{ transform-origin: center center;transform: scale3d(0, 0, 0);}
#grls1{ transform-origin: center center;transform: scale3d(0, 0, 0);}


		#lsic_1.active #lsic_1_inn{stroke-dashoffset: 0;}
	#lsic_1.active .lsic_1_st0{  animation-name: bounceIn;
  animation-duration: 1.5s;
  animation-timing-function: ease-in-out;
  animation-fill-mode: forwards;}
	#lsic_1.active #grls1{  animation-name: bounceIn;
  animation-duration: 1.5s;
  animation-delay: 0.5s;
  animation-timing-function: ease-in-out;
  animation-fill-mode: forwards;}

	#lsic_1.active .lsic_1_inn_op{opacity: 0.3;}


@-webkit-keyframes bounceIn {
  0% {
    opacity: 0;
    -webkit-transform: scale3d(0.3, 0.3, 0.3);
    transform: scale3d(0.3, 0.3, 0.3);
  }
  40% {
	 opacity: 1;
    -webkit-transform: scale3d(1.2, 1.2, 1.2);
    transform: scale3d(1.2, 1.2, 1.2);
  }
	70% {
    -webkit-transform: scale3d(0.85, 0.85, 0.85);
    transform: scale3d(0.85, 0.85, 0.85);
  }
  100% {
    -webkit-transform: scale3d(1, 1, 1);
    transform: scale3d(1, 1, 1);
  }
}

@keyframes bounceIn {
  0% {
    opacity: 0;
    -webkit-transform: scale3d(0.3, 0.3, 0.3);
    transform: scale3d(0.3, 0.3, 0.3);
  }
  40% {
	 opacity: 1;
    -webkit-transform: scale3d(1.2, 1.2, 1.2);
    transform: scale3d(1.2, 1.2, 1.2);
  }
	70% {
    -webkit-transform: scale3d(0.85, 0.85, 0.85);
    transform: scale3d(0.85, 0.85, 0.85);
  }
  100% {
    -webkit-transform: scale3d(1, 1, 1);
    transform: scale3d(1, 1, 1);
  }
}

</style>
<filter  filterUnits="userSpaceOnUse" height="121px" id="Filter_lsall" width="134px" x="0px" y="0px">
	<feOffset  dx="0" dy="5" in="SourceAlpha"></feOffset>
	<feGaussianBlur  result="blurOut" stdDeviation="2.828"></feGaussianBlur>
	<feFlood  flood-color="rgb(36, 33, 33)" result="floodOut"></feFlood>
	<feComposite  in="floodOut" in2="blurOut" operator="atop"></feComposite>
	<feComponentTransfer>
		<feFuncA  slope="0.2" type="linear"></feFuncA>
	</feComponentTransfer>
	<feMerge>
		<feMergeNode></feMergeNode>
		<feMergeNode  in="SourceGraphic"></feMergeNode>
	</feMerge>
</filter>
<g id="ls1_all">
	<linearGradient id="ls_grad" gradientUnits="userSpaceOnUse" x1="35.7957" y1="77.5814" x2="70.6316" y2="77.5814">
		<stop  offset="0" style="stop-color:#35E791"/>
		<stop  offset="1" style="stop-color:#0164B8"/>
	</linearGradient>
	<g id="ls1_x5F_ov" class="lsic_1_st0">
		<path class="lsic_1_st1" d="M13.5,85.3c12.7,18.3,42.7,27.8,64.3,25.3c14.6-1.7,32.2-9.1,39.3-22.8c2.3-4.4,1.3-8.7,2.2-13.4
			c2.4-13.6,6.8-26.8,0.2-40c-3.8-7.6-10.4-13.4-17-18.9c-1.9-1.6-3.8-3.3-6.1-4.4c-3-1.4-6.4-1.9-9.7-2
			c-17.6-0.7-34.1,6.3-47.6,17.2C28,35.2,10.9,50.5,8.4,65.1c-1.2,6.6,0.8,13.5,4.5,19.2C13.1,84.6,13.3,85,13.5,85.3z"/>
	</g>
	<g id="ls1_x5F_sh">
		<path class="lsic_1_st2 lsic_1_inn_op" d="M35.9,63h34.7v29.1H57.5c0,0,1.4-5.2-2.6-8.8C51,79.8,45.4,79.3,40,73S35.9,63,35.9,63z"/>
	</g>
	<g id="grls1">
		<path class="lsic_1_st3" id="lsic_1_inn" d="M100.4,77.8c4.2-3.8,6.8-8.5,7.2-15.1c0.1-0.9-0.2-1.7-0.8-2.4l0,0c-0.6-0.6-1.4-1-2.3-1H33.2
			c-0.8,0-1.7,0.4-2.3,1c-0.6,0.6-0.9,1.5-0.8,2.4c0.8,11.5,8.1,17.2,18.8,22.3c1.2,0.6,2.2,1.5,2.8,2.7c0.6,1.1,0.5,2.6-0.2,3.8
			c-0.5,0.9-0.6,2.1-0.1,3.1c0.5,0.9,1.5,1.5,2.6,1.5l29.7,0c1,0,1.9-0.4,2.5-1.2c0.8-1,0.8-2.3,0.2-3.4c-0.7-1.2-0.8-2.7-0.2-3.8
			c0.6-1.2,1.6-2.1,2.8-2.7c2.7-1.3,5.2-2.6,7.4-4.1 M87.7,82.6"/>
		<path class="lsic_1_st4" id="lsic_1_inn" d="M57.7,88.3h19.6 M78.6,88.2"/>
		<line class="lsic_1_st5" id="lsic_1_inn" x1="56.6" y1="83.2" x2="62.8" y2="83.2"/>
		<path class="lsic_1_st6" id="lsic_1_inn" d="M50.2,48.4c-1,0-2-0.3-2.9-0.9c-2.3-1.6-2.8-4.7-1.2-7l8.7-12.5c1.6-2.3,4.7-2.8,7-1.2c2.3,1.6,2.8,4.7,1.2,7
			l-8.7,12.5C53.3,47.7,51.7,48.4,50.2,48.4z"/>
		<path class="lsic_1_st7" id="lsic_1_inn" d="M36.4,56l0.6,0.4c0.8,0.5,1.3,1.5,1.2,2.5h24.4c-0.1-1,0.4-1.9,1.2-2.5l0.6-0.4c1.6-1,1.6-3.4,0-4.5l-0.6-0.4
			c-1.1-0.7-1.5-2-1-3.2l0.2-0.6c0.7-1.8-0.7-3.7-2.6-3.6l-0.7,0c-1.1,0.1-2.2-0.6-2.6-1.6l-2.9,4.2c-1,1.4-2.5,2.1-4.1,2.1
			c-1,0-2-0.3-2.9-0.9c-2.3-1.6-2.8-4.7-1.2-7l0.9-1.3c-1.3-0.2-2.7,0.5-3,1.9l-0.2,0.7c-0.3,1.2-1.5,2-2.7,2l-0.7,0
			c-1.9-0.1-3.3,1.8-2.6,3.6l0.2,0.6c0.5,1.2,0,2.5-1,3.2l-0.6,0.4C34.8,52.6,34.8,55,36.4,56z"/>
		<path class="lsic_1_st8" id="lsic_1_inn" d="M61.7,58.9H83l-0.2-0.5c-0.5-1.2,0-2.5,1-3.2l0.6-0.4c1.6-1,1.6-3.4,0-4.5L83.8,50c-1.1-0.7-1.5-2-1-3.2
			l0.2-0.6c0.7-1.8-0.7-3.7-2.6-3.6l-0.7,0c-1.3,0.1-2.4-0.8-2.7-2l-0.2-0.7c-0.5-1.9-2.7-2.6-4.2-1.4L72.1,39c-1,0.8-2.4,0.8-3.3,0
			l-0.5-0.4c-1.5-1.2-3.7-0.5-4.2,1.4l-0.2,0.7c-0.3,1.2-1.5,2-2.7,2l-0.7,0c-0.9,0-1.6,0.3-2.1,0.9"/>
		<path class="lsic_1_st9" id="lsic_1_inn" d="M93.3,26.5c-5.1-5.1-13.4-5.1-18.5,0c-3.5,3.5-4.6,8.4-3.3,12.9c0.2-0.1,0.4-0.2,0.6-0.4l0.5-0.4
			c1.5-1.2,3.7-0.5,4.2,1.4l0.2,0.7c0.3,1.2,1.5,2,2.7,2l0.7,0c1.9-0.1,3.3,1.8,2.6,3.6l-0.2,0.6c-0.3,0.7-0.2,1.4,0.1,2
			c3.7,0.3,7.6-0.9,10.5-3.8C98.4,39.9,98.4,31.6,93.3,26.5z"/>
		<line class="lsic_1_st10" id="lsic_1_inn" x1="81.6" y1="38.2" x2="79.2" y2="40.6"/>
		<line class="lsic_1_st11" id="lsic_1_inn" x1="88.9" y1="30.9" x2="86.4" y2="33.4"/>
		<line class="lsic_1_st12" id="lsic_1_inn" x1="86.5" y1="38.2" x2="88.9" y2="40.6"/>
		<line class="lsic_1_st13" id="lsic_1_inn" x1="79.2" y1="30.9" x2="81.7" y2="33.4"/>
		<path class="lsic_1_st14" id="lsic_1_inn" d="M84.4,54.8l-0.6,0.4c-1.1,0.7-1.5,2-1,3.2l0.2,0.5h19.2c1.6-2.2,2.6-4.9,2.6-7.8c0-5.4-3.3-10.1-8-12.1
			c-0.6,2.2-1.7,4.3-3.4,6.1c-2.9,2.9-6.7,4.1-10.5,3.8c0.2,0.5,0.5,0.9,1,1.2l0.6,0.4C86,51.4,86,53.7,84.4,54.8z"/>
		<line class="lsic_1_st15" id="lsic_1_inn" x1="98.5" y1="51.1" x2="95" y2="51.1"/>
		<line class="lsic_1_st16" id="lsic_1_inn" x1="91.7" y1="54.5" x2="91.7" y2="57.9"/>
		<line class="lsic_1_st17" id="lsic_1_inn" x1="75.7" y1="48.6" x2="77.2" y2="50.1"/>
		<line class="lsic_1_st18" id="lsic_1_inn" x1="74.2" y1="52.6" x2="72.6" y2="54.1"/>
		<line class="lsic_1_st19" id="lsic_1_inn" x1="73.1" y1="44.5" x2="69.1" y2="48.1"/>
	</g>
	</g>
</svg>
