<?xml version="1.0" encoding="utf-8"?>
<!-- Generator: Adobe Illustrator 21.0.0, SVG Export Plug-In . SVG Version: 6.00 Build 0)  -->
<svg version="1.0" id="lsic_2" xmlns="http://www.w3.org/2000/svg" xmlns:xlink="http://www.w3.org/1999/xlink" x="0px" y="0px"
	 viewBox="0 0 134 121" style="enable-background:new 0 0 134 121;" xml:space="preserve">
<style type="text/css">
	.lsic_2_st0{filter:url(#Filter_lsall);}
	.lsic_2_st1{fill:#FFFFFF;}
	.lsic_2_st2{opacity:0.3;fill:url(#ls_grad);}
	.lsic_2_st3{fill:none;stroke:url(#ls_grad);stroke-width:2;stroke-linecap:round;stroke-linejoin:round;stroke-miterlimit:10;}
	.lsic_2_st4{fill:none;stroke:url(#ls_grad);stroke-width:2;stroke-linecap:round;stroke-linejoin:round;stroke-miterlimit:10;}
	.lsic_2_st5{fill:none;stroke:url(#ls_grad);stroke-width:2;stroke-linecap:round;stroke-linejoin:round;stroke-miterlimit:10;}
	.lsic_2_st6{fill:none;stroke:url(#ls_grad);stroke-width:2;stroke-linecap:round;stroke-linejoin:round;stroke-miterlimit:10;}
	.lsic_2_st7{fill:none;stroke:url(#ls_grad);stroke-width:2;stroke-linecap:round;stroke-linejoin:round;stroke-miterlimit:10;}
	.lsic_2_st8{fill:none;stroke:url(#ls_grad);stroke-width:2;stroke-linecap:round;stroke-linejoin:round;stroke-miterlimit:10;}
	.lsic_2_st9{fill:none;stroke:url(#ls_grad);stroke-width:2;stroke-linecap:round;stroke-linejoin:round;stroke-miterlimit:10;}
	.lsic_2_st10{fill:none;stroke:url(#ls_grad);stroke-width:2;stroke-linecap:round;stroke-linejoin:round;stroke-miterlimit:10;}
	.lsic_2_st11{fill:none;stroke:url(#ls_grad);stroke-width:2;stroke-linecap:round;stroke-linejoin:round;stroke-miterlimit:10;}



		.lsic_2_st9, .lsic_2_st8, .lsic_2_st7, .lsic_2_st10, .lsic_2_st3, .lsic_2_st4, .lsic_2_st5{
	transition: all 1s 0.8s ease-in-out;
    stroke-dasharray: 50;
    stroke-dashoffset: 50;
	}


	.lsic_2_st6, .lsic_2_st11{ transition: all 1.5s 0.8s ease-in-out;
    stroke-dasharray: 200;
    stroke-dashoffset: 200;}

	.lsic_2_inn_op{opacity:0;transition: all 1s 1.5s ease-in-out;}


	.lsic_2_st0{ transform-origin: center center;transform: scale3d(0, 0, 0);}
#grls2{ transform-origin: center center;transform: scale3d(0, 0, 0);}


		#lsic_2.active #lsic_2_inn{stroke-dashoffset: 0;}
	#lsic_2.active .lsic_2_st0{  animation-name: bounceIn;
  animation-duration: 1.5s;
  animation-timing-function: ease-in-out;
  animation-fill-mode: forwards;}
	#lsic_2.active #grls2{  animation-name: bounceIn;
  animation-duration: 1.5s;
  animation-delay: 0.5s;
  animation-timing-function: ease-in-out;
  animation-fill-mode: forwards;}

	#lsic_2.active .lsic_2_inn_op{opacity: 0.3;}


@-webkit-keyframes bounceIn {
  0% {
    opacity: 0;
    -webkit-transform: scale3d(0.3, 0.3, 0.3);
    transform: scale3d(0.3, 0.3, 0.3);
  }
  40% {
	 opacity: 1;
    -webkit-transform: scale3d(1.2, 1.2, 1.2);
    transform: scale3d(1.2, 1.2, 1.2);
  }
	70% {
    -webkit-transform: scale3d(0.85, 0.85, 0.85);
    transform: scale3d(0.85, 0.85, 0.85);
  }
  100% {
    -webkit-transform: scale3d(1, 1, 1);
    transform: scale3d(1, 1, 1);
  }
}

@keyframes bounceIn {
  0% {
    opacity: 0;
    -webkit-transform: scale3d(0.3, 0.3, 0.3);
    transform: scale3d(0.3, 0.3, 0.3);
  }
  40% {
	 opacity: 1;
    -webkit-transform: scale3d(1.2, 1.2, 1.2);
    transform: scale3d(1.2, 1.2, 1.2);
  }
	70% {
    -webkit-transform: scale3d(0.85, 0.85, 0.85);
    transform: scale3d(0.85, 0.85, 0.85);
  }
  100% {
    -webkit-transform: scale3d(1, 1, 1);
    transform: scale3d(1, 1, 1);
  }
}


</style>
<filter  filterUnits="userSpaceOnUse" height="121px" id="Filter_lsall" width="134px" x="0px" y="0px">
	<feOffset  dx="0" dy="5" in="SourceAlpha"></feOffset>
	<feGaussianBlur  result="blurOut" stdDeviation="2.828"></feGaussianBlur>
	<feFlood  flood-color="rgb(36, 33, 33)" result="floodOut"></feFlood>
	<feComposite  in="floodOut" in2="blurOut" operator="atop"></feComposite>
	<feComponentTransfer>
		<feFuncA  slope="0.2" type="linear"></feFuncA>
	</feComponentTransfer>
	<feMerge>
		<feMergeNode></feMergeNode>
		<feMergeNode  in="SourceGraphic"></feMergeNode>
	</feMerge>
</filter>
<g id="ls2_all">
		<linearGradient id="ls_grad" gradientUnits="userSpaceOnUse" x1="35.7957" y1="77.5814" x2="70.6316" y2="77.5814">
		<stop  offset="0" style="stop-color:#35E791"/>
		<stop  offset="1" style="stop-color:#0164B8"/>
	</linearGradient>
	<g id="ls12_x5F_ov" class="lsic_2_st0">
		<path class="lsic_2_st1" d="M127.1,79.4c0.1-0.3,0.2-0.6,0.2-0.9c2.2-9.1,0.1-18.9-4.1-27.4c-6.1-12.4-15.7-24.8-27.7-31.9
			c-13.1-7.8-32.2-12.8-46.8-5.8c-4.7,2.2-6.6,6.4-10.3,9.8C27.8,33.1,16,41.4,13,56.6C10.6,69.1,13.2,86,23.6,94.2
			c7.2,5.7,16.7,7.9,24.9,10.5c1.4,0.4,2.8,0.8,4.2,1c16.5,2.7,36.4,4.7,52.8-2.8C115.6,98.3,124.1,89.9,127.1,79.4z"/>
	</g>
	<g id="ls2_x5F_sh">
		<path class="lsic_2_st2 lsic_2_inn_op" d="M77.9,35.3l-5.4,16.5c0,0,6.3,1.7,8.1,4.6c0,0,11.6-2.4,16.4,5C95.7,49.5,91.7,42.3,77.9,35.3z"/>
	</g>
	<g id="grls2">
		<line class="lsic_2_st3" id="lsic_2_inn" x1="62.6" y1="82.3" x2="59.9" y2="90.3"/>
		<line class="lsic_2_st4" id="lsic_2_inn" x1="71.7" y1="54.7" x2="64.8" y2="75.5"/>
		<line class="lsic_2_st5" id="lsic_2_inn" x1="79.7" y1="30.7" x2="78.9" y2="32.9"/>
		<path class="lsic_2_st6" id="lsic_2_inn" d="M87.5,82.3H43.8c-1.1,0-2.1-0.5-2.7-1.4L28.6,63.3c-1.1-1.5-0.7-3.6,0.8-4.7c1.5-1.1,3.6-0.7,4.7,0.8
			l11.5,16.1h41.9c1.9,0,3.4,1.5,3.4,3.4S89.4,82.3,87.5,82.3z"/>
		<line class="lsic_2_st7" id="lsic_2_inn" x1="42.6" y1="82" x2="41.4" y2="88.9"/>
		<line class="lsic_2_st8" id="lsic_2_inn" x1="86" y1="82.7" x2="87.6" y2="88.9"/>
		<line class="lsic_2_st9" id="lsic_2_inn" x1="41.2" y1="69.5" x2="57.5" y2="69.5"/>
		<line class="lsic_2_st10" id="lsic_2_inn" x1="52.2" y1="69.5" x2="56.4" y2="75.5"/>
		<path class="lsic_2_st11" id="lsic_2_inn" d="M71.7,54.7c3.2,1.1,6.4,3.3,7.4,5.1c0.3,0.5,0.9,0.7,1.4,0.5c2.2-1,5.6-0.9,9,0.3c3.4,1.1,6.2,3.1,7.4,5.2
			c0.2,0.4,0.6,0.6,1.1,0.6c0.4,0,0.8-0.3,0.9-0.8c2.1-6.3,1.1-13.2-2.7-19.3c-3.6-5.8-9.3-10.4-16.2-12.9l-2.1-0.7
			c-7.1-2.1-14.4-1.9-20.7,0.7c-6.7,2.7-11.6,7.6-13.7,13.9c-0.1,0.4,0,0.9,0.3,1.2c0.1,0.1,0.3,0.2,0.4,0.2c0.3,0.1,0.5,0.1,0.8,0
			c2.1-1,5.6-0.9,9,0.3c3.4,1.1,6.2,3.1,7.4,5.2c0.3,0.5,0.9,0.7,1.4,0.4C64.7,53.5,68.5,53.6,71.7,54.7z M61.9,54.4
			c3.7-8.7,6.4-12.2,9.1-15.3c2.7-3.2,6-6.8,7.9-6.2 M78.9,32.9c1.9,0.6,2.4,5.5,2.7,9.7c0.3,4.1,0.2,11.4-1.9,17.7"/>
	</g>
	</g>
</svg>
