<?xml version="1.0" encoding="utf-8"?>
<!-- Generator: Adobe Illustrator 21.0.0, SVG Export Plug-In . SVG Version: 6.00 Build 0)  -->
<svg version="1.0" id="lsic_4" xmlns="http://www.w3.org/2000/svg" xmlns:xlink="http://www.w3.org/1999/xlink" x="0px" y="0px"
	 viewBox="0 0 134 121" style="enable-background:new 0 0 134 121;" xml:space="preserve">
<style type="text/css">
	.lsic_4_st0{filter:url(#Filter_lsall);}
	.lsic_4_st1{fill:#FFFFFF;}
	.lsic_4_st2{opacity:1;fill:url(#ls_grad);}
	.lsic_4_st3{opacity:1;fill:url(#ls_grad);}
	.lsic_4_st4{fill:none;stroke:url(#ls_grad);stroke-width:2;stroke-linecap:round;stroke-linejoin:round;stroke-miterlimit:10;}
	.lsic_4_st5{fill:none;stroke:url(#ls_grad);stroke-width:2;stroke-linecap:round;stroke-linejoin:round;stroke-miterlimit:10;}
	.lsic_4_st6{fill:none;stroke:url(#ls_grad);stroke-width:2;stroke-linecap:round;stroke-linejoin:round;stroke-miterlimit:10;}
	.lsic_4_st7{fill:none;stroke:url(#ls_grad);stroke-width:2;stroke-linecap:round;stroke-linejoin:round;stroke-miterlimit:10;}
	.lsic_4_st8{fill:none;stroke:url(#ls_grad);stroke-width:2;stroke-linecap:round;stroke-linejoin:round;stroke-miterlimit:10;}
	.lsic_4_st9{fill:none;stroke:url(#ls_grad);stroke-width:2;stroke-linecap:round;stroke-linejoin:round;stroke-miterlimit:10;}
	.lsic_4_st10{fill:none;stroke:url(#ls_grad);stroke-width:2;stroke-linecap:round;stroke-linejoin:round;stroke-miterlimit:10;}
	.lsic_4_st11{fill:none;stroke:url(#ls_grad);stroke-width:2;stroke-linecap:round;stroke-linejoin:round;stroke-miterlimit:10;}
	.lsic_4_st12{fill:none;stroke:url(#ls_grad);stroke-width:2;stroke-linecap:round;stroke-linejoin:round;stroke-miterlimit:10;}
	.lsic_4_st13{fill:none;stroke:url(#ls_grad);stroke-width:2;stroke-linecap:round;stroke-linejoin:round;stroke-miterlimit:10;}
	.lsic_4_st14{fill:none;stroke:url(#ls_grad);stroke-width:2;stroke-linecap:round;stroke-linejoin:round;stroke-miterlimit:10;}
	.lsic_4_st15{fill:none;stroke:url(#ls_grad);stroke-width:2;stroke-linecap:round;stroke-linejoin:round;stroke-miterlimit:10;}
	.lsic_4_st16{fill:none;stroke:url(#ls_grad);stroke-width:2;stroke-linecap:round;stroke-linejoin:round;stroke-miterlimit:10;}
	.lsic_4_st17{fill:none;stroke:url(#ls_grad);stroke-width:2;stroke-linecap:round;stroke-linejoin:round;stroke-miterlimit:10;}
	.lsic_4_st18{fill:none;stroke:url(#ls_grad);stroke-width:2;stroke-linecap:round;stroke-linejoin:round;stroke-miterlimit:10;}



			.lsic_4_st16, .lsic_4_st15, .lsic_4_st17, .lsic_4_st14, .lsic_4_st13, .lsic_4_st11, .lsic_4_st12, .lsic_4_st4, .lsic_4_st5, .lsic_4_st6, .lsic_4_st7, .lsic_4_st8 {
	transition: all 1s 0.8s ease-in-out;
    stroke-dasharray: 50;
    stroke-dashoffset: 50;
	}

.lsic_4_st18, .lsic_4_st10, .lsic_4_st11, .lsic_4_st12, .lsic_4_st17{ transition: all 1.2s 0.8s ease-in-out;
    stroke-dasharray: 100;
    stroke-dashoffset: 100}
	.lsic_4_st9{ transition: all 1.5s 0.8s ease-in-out;
    stroke-dasharray: 210;
    stroke-dashoffset: 210;}

	.lsic_4_inn_op{opacity:0;transition: all 1s 1.5s ease-in-out;}


	.lsic_4_st0{ transform-origin: center center;transform: scale3d(0, 0, 0);}
#grls4{ transform-origin: center center;transform: scale3d(0, 0, 0);}


		#lsic_4.active #lsic_4_inn{stroke-dashoffset: 0;}
	#lsic_4.active .lsic_4_st0{  animation-name: bounceIn;
  animation-duration: 1.5s;
  animation-timing-function: ease-in-out;
  animation-fill-mode: forwards;}
	#lsic_4.active #grls4{  animation-name: bounceIn;
  animation-duration: 1.5s;
  animation-delay: 0.5s;
  animation-timing-function: ease-in-out;
  animation-fill-mode: forwards;}

	#lsic_4.active .lsic_4_inn_op{opacity: 0.3;}


@-webkit-keyframes bounceIn {
  0% {
    opacity: 0;
    -webkit-transform: scale3d(0.3, 0.3, 0.3);
    transform: scale3d(0.3, 0.3, 0.3);
  }
  40% {
	 opacity: 1;
    -webkit-transform: scale3d(1.2, 1.2, 1.2);
    transform: scale3d(1.2, 1.2, 1.2);
  }
	70% {
    -webkit-transform: scale3d(0.85, 0.85, 0.85);
    transform: scale3d(0.85, 0.85, 0.85);
  }
  100% {
    -webkit-transform: scale3d(1, 1, 1);
    transform: scale3d(1, 1, 1);
  }
}

@keyframes bounceIn {
  0% {
    opacity: 0;
    -webkit-transform: scale3d(0.3, 0.3, 0.3);
    transform: scale3d(0.3, 0.3, 0.3);
  }
  40% {
	 opacity: 1;
    -webkit-transform: scale3d(1.2, 1.2, 1.2);
    transform: scale3d(1.2, 1.2, 1.2);
  }
	70% {
    -webkit-transform: scale3d(0.85, 0.85, 0.85);
    transform: scale3d(0.85, 0.85, 0.85);
  }
  100% {
    -webkit-transform: scale3d(1, 1, 1);
    transform: scale3d(1, 1, 1);
  }
}



</style>
<filter  filterUnits="userSpaceOnUse" height="121px" id="Filter_lsall" width="134px" x="0px" y="0px">
	<feOffset  dx="0" dy="5" in="SourceAlpha"></feOffset>
	<feGaussianBlur  result="blurOut" stdDeviation="2.828"></feGaussianBlur>
	<feFlood  flood-color="rgb(36, 33, 33)" result="floodOut"></feFlood>
	<feComposite  in="floodOut" in2="blurOut" operator="atop"></feComposite>
	<feComponentTransfer>
		<feFuncA  slope="0.2" type="linear"></feFuncA>
	</feComponentTransfer>
	<feMerge>
		<feMergeNode></feMergeNode>
		<feMergeNode  in="SourceGraphic"></feMergeNode>
	</feMerge>
</filter>
<g id="ls4_all">
	<linearGradient id="ls_grad" gradientUnits="userSpaceOnUse" x1="35.7957" y1="77.5814" x2="70.6316" y2="77.5814">
		<stop  offset="0" style="stop-color:#35E791"/>
		<stop  offset="1" style="stop-color:#0164B8"/>
	</linearGradient>
<g id="ls14_x5F_ov" class="lsic_4_st0">
	<path class="lsic_4_st1" d="M128,78.5c0.1-0.3,0.2-0.6,0.2-0.9c2.2-9.1,0.1-18.9-4.1-27.4c-6.1-12.4-15.7-24.8-27.7-31.9
		c-13.1-7.8-32.2-12.8-46.8-5.8c-4.7,2.2-6.6,6.4-10.3,9.8C28.8,32.2,17,40.4,14,55.7C11.6,68.1,14.2,85,24.6,93.3
		c7.2,5.7,16.7,7.9,24.9,10.5c1.4,0.4,2.8,0.8,4.2,1c16.5,2.7,36.4,4.7,52.8-2.8C116.6,97.4,125.1,89,128,78.5z"/>
</g>
<g id="ls4_x5F_sh" class="lsic_4_inn_op">
	<path class="lsic_4_st2" d="M47.9,47c0,1,0.5,2,1.2,2.7l9.5,9.2c1.8-1.9,2.7-4,2.7-6.2c0-5.3-4.8-10.5-7-12.6l-4.7,3.6
		C48.5,44.5,47.8,45.8,47.9,47z"/>
	<path class="lsic_4_st3" d="M108.3,71.1l-2.1,1c-0.5,0.2-0.7,0.7-0.7,1.2c0.1,1.4-0.4,2.8-1.4,3.8c-1,1-2.3,1.6-3.7,1.6l-3.2,0
		c-0.5,0-1,0.1-1.5,0.2h10.6c2.4,0,4.4-1.8,4.4-4.1C110.5,73.2,109.7,72,108.3,71.1z"/>
</g>
<g id="grls4">
	<line class="lsic_4_st4" id="lsic_4_inn" x1="36.1" y1="51.4" x2="19.5" y2="51.4"/>
	<line class="lsic_4_st5" id="lsic_4_inn" x1="73.7" y1="85.8" x2="40.8" y2="85.8"/>
	<line class="lsic_4_st6" id="lsic_4_inn" x1="40.8" y1="58.7" x2="29.1" y2="58.7"/>
	<line class="lsic_4_st7" id="lsic_4_inn" x1="64.9" y1="81.8" x2="53.2" y2="81.8"/>
	<line class="lsic_4_st8" id="lsic_4_inn" x1="48.7" y1="75.3" x2="39.2" y2="75.3"/>
	<path class="lsic_4_st9" id="lsic_4_inn" d="M61.6,30.4l-17,14c0,0-4,4-1,9c2.3,3.8,6,7,6,7s3-1,5,1s1,5,2,7s18,14,18,14s4,3,16,3c15,0,14,0,14,0s8-1,8-7
		c1-6-2-9-5-10s-12-2-12-2l-6-15c0,0-12-1-18-5s-6-13.6-6-15C65.6,29.4,63.6,28.4,61.6,30.4z"/>
	<path class="lsic_4_st10" id="lsic_4_inn" d="M46.3,43c-0.6,1.4-1.9,5.2,1.3,8.4c4,4,27,25,27,25s6,5,14,5s18,0,18,0s6.2-1.7,6.2-4.9"/>
	<path class="lsic_4_st11" id="lsic_4_inn" d="M53.9,36.7c0,0,6.7,6.7,8.7,11.7s-1,11-4,13"/>
	<path class="lsic_4_st12" id="lsic_4_inn" d="M77.6,52.8c0,0,4,7.6,3,14.6c-1.1,8-3.4,10.8-3.4,10.8"/>
	<line class="lsic_4_st13" id="lsic_4_inn" x1="91.6" y1="58.4" x2="88.6" y2="58.4"/>
	<line class="lsic_4_st14" id="lsic_4_inn" x1="93.6" y1="61.4" x2="89.6" y2="61.4"/>
	<line class="lsic_4_st15" id="lsic_4_inn" x1="94.6" y1="64.4" x2="90.6" y2="64.4"/>
	<path class="lsic_4_st16" id="lsic_4_inn" d="M95.5,66.1c0,0-1.9,1.3-0.9,3.3s5.5,1.7,9.8-1.7"/>
	<path class="lsic_4_st17" id="lsic_4_inn" d="M108.2,68.6c0,0-3.6,0.8-4.6,3.8s-1,5-5,5s-8,1-8,4"/>
	<path class="lsic_4_st18" id="lsic_4_inn" d="M79.9,49.8l3.7-5.4c0,0,3-5,8-3s5,2,5,2l-6.4,9.5c0,0-14.6,2.5-22.6-4.5s-7-17.2-7-17.2"/>
</g>
</g>
</svg>
