<?xml version="1.0" encoding="utf-8"?>
<!-- Generator: Adobe Illustrator 21.0.0, SVG Export Plug-In . SVG Version: 6.00 Build 0)  -->
<svg version="1.0" id="ls_plus" xmlns="http://www.w3.org/2000/svg" xmlns:xlink="http://www.w3.org/1999/xlink" x="0px" y="0px"
	 viewBox="0 0 218.3 200.9" enable-background="new 0 0 218.3 200.9" xml:space="preserve">
	<style>
			#pluskont{filter:url(#Filter_lsallplus);}
	</style>
<g id="ls_plus_all">
	<filter  filterUnits="userSpaceOnUse" height="220px" id="Filter_lsallplus" width="220px" x="0px" y="0px">
		<feOffset  dx="0" dy="5" in="SourceAlpha"></feOffset>
		<feGaussianBlur  result="blurOut" stdDeviation="2.828"></feGaussianBlur>
		<feFlood  flood-color="rgb(36, 33, 33)" result="floodOut"></feFlood>
		<feComposite  in="floodOut" in2="blurOut" operator="atop"></feComposite>
		<feComponentTransfer>
			<feFuncA  slope="0.2" type="linear"></feFuncA>
		</feComponentTransfer>
		<feMerge>
			<feMergeNode></feMergeNode>
			<feMergeNode  in="SourceGraphic"></feMergeNode>
		</feMerge>
	</filter>
	<linearGradient id="gr_plusin" gradientUnits="userSpaceOnUse" x1="92.3883" y1="83.6407" x2="164.7554" y2="129.581">
		<stop  offset="0" style="stop-color:#31E180"/>
		<stop  offset="1" style="stop-color:#38F8FF"/>
	</linearGradient>
	<path id="pluskont" fill="#136577" d="M185.3,79c-0.5,3.2-2.1,6.2-3.4,9.2c-4.2,9.3-6.1,19.6-5.7,29.8c0.2,5.2,1,10.6-0.6,15.5
		c-1.3,3.9-3.9,7.1-6.6,10.2c-12.4,14.4-27.6,28.9-46.6,29.8c-19.9,1-37.2-13.2-56.7-17.2c-6.5-1.3-13.4-1.6-19.2-4.7
		c-5.3-2.8-9.1-7.7-12.7-12.4c-7.6-10.1-15.1-20.6-18.9-32.6s-3.7-25.9,3.2-36.5c7-10.8,19.6-16.5,29.7-24.6
		C58.2,36.7,68.4,22.7,82.1,19c14.9-4,38.2-0.9,52.7,3.3c22,6.4,40.5,23.6,48.6,45C184.8,70.8,186,74.9,185.3,79z"/>
	<path id="plusin" fill="url(#gr_plusin)" d="M137.1,78.9c-2.1-1.9-5-1.7-7.6-1.5c-0.8,0.1-9.7,0.5-9.7,0.7c0.1-2.2,0.3-4.4,0.3-6.6
		c0.1-2.3,1.1-10.8-1.6-11.3c-4.9-1-9.8-1.4-14.8-1.4c-3.6,0-9.3-0.6-11.3,3.2c-2.2,4.2-1.2,9.3-1.1,13.8c0,1.2,0,2.4,0,3.6
		c-4.8,0.1-9.5-0.2-14.3,0.6c-0.4,0.1-0.8,0.1-1.1,0.3c-0.5,0.3-0.6,0.9-0.7,1.4c-1.3,6.7-2.6,13.5-1.9,20.4
		c0.1,0.9,0.2,1.7,0.5,2.6c1.7,5.2,7.5,5.1,12,4.8c1.7-0.1,3.5-0.3,5.2-0.5c-0.1,0-0.4,10.8-0.3,12c0.2,1.1,0.7,2.2,1.6,2.9
		c0.9,0.7,2.1,0.8,3.2,0.9c4.5,0.5,9-0.5,13.5-0.5c2.3-0.1,4.8,0.2,7.1-0.1c0.6-0.1,1.3-0.3,1.7-0.8c0.3-0.3,0.4-0.8,0.5-1.2
		c0.5-2.6,0.2-5.1,0.3-7.7c0.1-2.6,0.2-5.1,0.2-7.7c0.7-0.1,1.4-0.1,2.1-0.1c2.7-0.2,5.4-0.4,8.1-0.6c2.1-0.2,5.3,0.5,7.4-0.9
		c0.9-0.6,1.7-1.9,2.2-3.3c0.3-1,0.4-2,0.4-3c0.2-2.9,0.5-5.8,0.7-8.7c0.2-2.4,0.8-4.5,0-6.9c-0.5-1.5-1.2-3-2.3-4.1
		C137.3,79.1,137.2,79,137.1,78.9z"/>

</g>
</svg>
