<?xml version="1.0" encoding="utf-8"?>
<!-- Generator: Adobe Illustrator 21.0.0, SVG Export Plug-In . SVG Version: 6.00 Build 0)  -->
<svg version="1.0" id="Layer_1" xmlns="http://www.w3.org/2000/svg" xmlns:xlink="http://www.w3.org/1999/xlink" x="0px" y="0px"
	 viewBox="0 0 133.3 80" enable-background="new 0 0 133.3 80" xml:space="preserve">
<path fill="#4354A4" d="M126.2,43.4v29l-17.5-29h-5.6v31.7h3.4V46.5L124,75.2h5.7V43.4H126.2z M77.4,53.9c0-2.3,0.3-4,0.7-5.1
	c0.4-1.1,1.1-1.8,2-2.1c0.9-0.4,2.4-0.5,4.3-0.5h1.2c2.6,0,4.5,0.1,5.6,0.4c1.2,0.3,2,0.9,2.6,2c0.6,1.1,0.8,2.9,0.8,5.4
	c0,4.7,0,8.1-0.1,10.4c0,1.9-0.3,3.4-0.6,4.5c-0.4,1.1-0.9,1.9-1.7,2.4c-0.7,0.5-1.7,0.8-2.8,1c-1.1,0.1-2.7,0.2-4.7,0.2
	c-2.1,0-3.6-0.2-4.6-0.6c-1-0.4-1.7-1.2-2.1-2.2c-0.4-1.1-0.6-2.7-0.6-4.8v-5.1L77.4,53.9z M73.9,66c0.1,2,0.4,3.6,0.9,4.8
	c0.5,1.2,1.2,2.2,2.1,2.8c0.9,0.7,2,1.1,3.3,1.3c1.3,0.2,2.9,0.4,4.8,0.4c0.4,0,0.8,0,1.4,0.1c0.6,0,1,0.1,1.3,0.1
	c2,0,3.6-0.2,4.9-0.6c1.3-0.4,2.4-1,3.2-1.8c0.8-0.8,1.4-1.9,1.7-3.2c0.4-1.3,0.6-2.9,0.6-4.9c0-2.6,0.1-6.4,0.1-11.3
	c0-2.4-0.3-4.4-0.8-5.8c-0.5-1.4-1.3-2.5-2.3-3.2c-1-0.7-2.3-1.2-3.8-1.4c-1.5-0.2-3.4-0.3-5.8-0.3h-1.5c-2.4,0-4.3,0.4-5.7,1.1
	c-1.4,0.7-2.4,1.7-3,3c-0.6,1.3-1,2.7-1.2,4.4c-0.2,1.6-0.2,3.8-0.2,6.4v1.9C73.8,62.6,73.8,64.6,73.9,66 M65.6,75.2h3.5V43.4h-3.5
	V75.2z M57.3,43.4v29l-17.5-29h-5.6v31.7h3.4V46.5L55,75.2h5.7V43.4H57.3z M25.7,65.6c0,1.4-0.1,2.5-0.4,3.4c-0.3,0.9-0.7,1.5-1.2,2
	c-0.6,0.5-1.3,0.8-2.2,0.9c-0.9,0.2-2.1,0.2-3.5,0.2h-3.4c-1.8,0-3.2-0.2-4.1-0.5c-0.9-0.3-1.6-1-2-1.9s-0.6-2.3-0.6-4.1V43.4H4.7
	v22.2c0,2.9,0.5,5.1,1.4,6.5c0.9,1.4,2.2,2.3,3.9,2.6c1.7,0.4,4,0.6,6.9,0.6c1.5,0,2.7,0,3.4,0c2.3-0.1,4.1-0.5,5.4-1.2
	c1.3-0.7,2.2-1.7,2.7-3c0.5-1.3,0.8-3.1,0.8-5.4V43.4h-3.5V65.6z"/>
<path fill="#6D6E71" d="M95.9,29.6h2.4V14.1c0-0.3,0-0.7,0.3-1c0.3-0.3,0.8-0.3,1.2-0.3h11.7v16.8h2.4V12.8h8.4
	c1.1,0,2.7,0.1,3.7,0.9c0.9,0.7,1,1.8,1,2.6v13.2h2.4V16.5c0-1.5-0.4-3.2-1.9-4.2c-1.3-0.9-3.3-1.1-5.2-1.1H99.3c-0.7,0-2,0.1-2.8,1
	c-0.5,0.6-0.6,1.4-0.6,2.1V29.6z M83.9,29.6h2.4V18c0-1.5,0.2-2.9,1.3-3.8c1.4-1.2,3.4-1.3,4.8-1.3H94v-1.6h-1.7
	c-3.3,0-5.1,0.8-6.1,1.5c-1.9,1.3-2.2,3-2.2,4.8V29.6z M76.8,20.2v6.9c0,0.2,0,0.4-0.3,0.6C76.1,28,75.6,28,75.4,28H65.3
	c-1,0-1.9-0.3-2.5-0.8c-0.9-0.8-1-2.1-1-3.2c0-1.3,0.2-2.3,0.8-2.9c0.4-0.4,1.3-0.9,2.7-0.9H76.8z M61.1,11.2v1.6h12.1
	c1.2,0,2.1,0.4,2.6,0.8c0.6,0.6,0.9,1.6,0.9,2.2v2.7H65.9c-1.4,0-3.3,0.1-4.7,1c-1.8,1.1-2.1,2.8-2.1,4.3c0,1.1,0.1,3.6,2.2,4.9
	c1.4,0.8,3.1,0.8,4.5,0.8h9.6c0.8,0,2.1,0,2.8-0.5c0.8-0.6,0.8-1.4,0.8-1.9v-11c0-1.1-0.2-2.6-1.5-3.7c-1-0.8-2.7-1.3-4.4-1.3H61.1z
	 M35.8,29.6h2.4V12.8h9.4c1.4,0,2.9,0.1,4.1,1.1c1.1,1,1.2,2.4,1.2,3.2v12.4h2.4V17.4c0-1.8-0.4-3.6-2.2-4.9c-1.4-1-3.3-1.3-5.8-1.3
	h-9.2V5.3h-2.4V29.6z M7.2,18V8.5c0-0.8,0-1.5,1.9-1.5h13.5C25,7,26.4,7.5,27,8.1c1.3,1.1,1.4,3.3,1.4,4.2c0,0.9,0,3.5-1.3,4.6
	c-0.6,0.5-1.9,1.1-4.6,1.1H7.2z M7.2,29.6v-9.9H24c1.7,0,3.3-0.4,4.4-1c2.4-1.4,2.7-3.9,2.7-5.9c0-3.2-0.6-5-2.5-6.2
	c-1.9-1.2-4.2-1.3-6.3-1.3H8.7c-0.5,0-2.3,0-3.2,0.7S4.7,7.5,4.7,8.2v21.4H7.2z"/>
<rect x="4.7" y="34.5" fill="#D2232A" width="124.9" height="2.9"/>
</svg>
