<?xml version="1.0" encoding="utf-8"?>
<!-- Generator: Adobe Illustrator 21.0.0, SVG Export Plug-In . SVG Version: 6.00 Build 0)  -->
<svg version="1.0" id="Layer_1" xmlns="http://www.w3.org/2000/svg" xmlns:xlink="http://www.w3.org/1999/xlink" x="0px" y="0px"
	 viewBox="0 0 270.9 152.3" style="enable-background:new 0 0 270.9 152.3;" xml:space="preserve">
<style type="text/css">
	.st0{fill:#999787;}
	.st1{fill:#CCC9B3;}
	.st2{fill:url(#SVGID_1_);}
	.st3{fill:#F7A805;}
	.st4{fill:#765553;}
	.st5{fill:url(#SVGID_2_);}
	.st6{opacity:0.22;}
	.st7{fill:#FFFFFF;}
</style>
<g>
	<polygon class="st0" points="119.5,124.7 128.7,124.7 116.6,59.8 107.4,59.8 	"/>
	<polygon class="st1" points="111.1,126.7 102.1,126.7 107.7,59.8 116.6,59.8 	"/>
	<g>
		
			<linearGradient id="SVGID_1_" gradientUnits="userSpaceOnUse" x1="192.195" y1="53.6276" x2="213.2871" y2="53.6276" gradientTransform="matrix(-1 0 0 1 314.4288 0)">
			<stop  offset="0" style="stop-color:#F9863B"/>
			<stop  offset="1" style="stop-color:#E53C43"/>
		</linearGradient>
		<path class="st2" d="M111.7,64.2c-5.8,0-10.5-4.7-10.5-10.5s4.7-10.5,10.5-10.5s10.5,4.7,10.5,10.5S117.5,64.2,111.7,64.2z"/>
		<path class="st1" d="M111.7,44.1c5.3,0,9.5,4.3,9.5,9.5c0,5.3-4.3,9.5-9.5,9.5c-5.3,0-9.5-4.3-9.5-9.5
			C102.1,48.4,106.4,44.1,111.7,44.1 M111.7,42.1c-6.4,0-11.5,5.2-11.5,11.5s5.2,11.5,11.5,11.5c6.4,0,11.5-5.2,11.5-11.5
			S118.1,42.1,111.7,42.1L111.7,42.1z"/>
	</g>
	<g>
		<polygon class="st3" points="175.1,94.3 178.9,113.9 172.6,113.9 168.7,94.3 		"/>
		<polygon class="st3" points="139.3,94.3 143.1,113.9 136.8,113.9 132.9,94.3 		"/>
		<polygon class="st3" points="163.2,94.3 167,113.9 160.6,113.9 156.8,94.3 		"/>
		<polygon class="st3" points="127.4,94.3 131.2,113.9 124.8,113.9 121,94.3 		"/>
		<polygon class="st3" points="188.7,94.3 187,113.9 184.5,113.9 180.7,94.3 		"/>
		<polygon class="st3" points="119.3,113.9 111.6,113.9 113.3,94.3 115.4,94.3 		"/>
		<polygon class="st3" points="151.2,94.3 155.1,113.9 148.7,113.9 144.9,94.3 		"/>
		<polygon class="st4" points="180.7,94.3 184.5,113.9 178.9,113.9 175.1,94.3 		"/>
		<polygon class="st4" points="168.7,94.3 172.6,113.9 167,113.9 163.2,94.3 		"/>
		<polygon class="st4" points="156.8,94.3 160.6,113.9 155.1,113.9 151.2,94.3 		"/>
		<polygon class="st4" points="144.9,94.3 148.7,113.9 143.1,113.9 139.3,94.3 		"/>
		<polygon class="st4" points="132.9,94.3 136.8,113.9 131.2,113.9 127.4,94.3 		"/>
		<polygon class="st4" points="121,94.3 124.8,113.9 119.3,113.9 115.4,94.3 		"/>
	</g>
	<g>
		<polygon class="st3" points="177.5,67 181.3,86.7 174.9,86.7 171.1,67 		"/>
		<polygon class="st3" points="141.7,67 145.5,86.7 139.1,86.7 135.3,67 		"/>
		<polygon class="st3" points="165.5,67 169.4,86.7 163,86.7 159.2,67 		"/>
		<polygon class="st3" points="129.7,67 133.6,86.7 127.2,86.7 123.4,67 		"/>
		<polygon class="st3" points="191.1,67 189.4,86.7 186.9,86.7 183,67 		"/>
		<polygon class="st3" points="121.6,86.7 113.9,86.7 115.6,67 117.8,67 		"/>
		<polygon class="st3" points="153.6,67 157.4,86.7 151.1,86.7 147.2,67 		"/>
		<polygon class="st4" points="183,67 186.9,86.7 181.3,86.7 177.5,67 		"/>
		<polygon class="st4" points="171.1,67 174.9,86.7 169.4,86.7 165.5,67 		"/>
		<polygon class="st4" points="159.2,67 163,86.7 157.4,86.7 153.6,67 		"/>
		<polygon class="st4" points="147.2,67 151.1,86.7 145.5,86.7 141.7,67 		"/>
		<polygon class="st4" points="135.3,67 139.1,86.7 133.6,86.7 129.7,67 		"/>
		<polygon class="st4" points="123.4,67 127.2,86.7 121.6,86.7 117.8,67 		"/>
	</g>
	<polygon class="st0" points="203.1,124.7 212.3,124.7 200.2,59.8 191,59.8 	"/>
	<polygon class="st1" points="194.7,126.7 185.7,126.7 191.3,59.8 200.2,59.8 	"/>
	<g>
		
			<linearGradient id="SVGID_2_" gradientUnits="userSpaceOnUse" x1="108.5989" y1="53.6276" x2="129.691" y2="53.6276" gradientTransform="matrix(-1 0 0 1 314.4288 0)">
			<stop  offset="0" style="stop-color:#F9863B"/>
			<stop  offset="1" style="stop-color:#E53C43"/>
		</linearGradient>
		<path class="st5" d="M195.3,64.2c-5.8,0-10.5-4.7-10.5-10.5s4.7-10.5,10.5-10.5s10.5,4.7,10.5,10.5S201.1,64.2,195.3,64.2z"/>
		<path class="st1" d="M195.3,44.1c5.3,0,9.5,4.3,9.5,9.5c0,5.3-4.3,9.5-9.5,9.5c-5.3,0-9.5-4.3-9.5-9.5
			C185.7,48.4,190,44.1,195.3,44.1 M195.3,42.1c-6.4,0-11.5,5.2-11.5,11.5s5.2,11.5,11.5,11.5c6.4,0,11.5-5.2,11.5-11.5
			S201.7,42.1,195.3,42.1L195.3,42.1z"/>
	</g>
	<g class="st6">
		<ellipse class="st7" cx="195.3" cy="58.8" rx="4.4" ry="2.9"/>
	</g>
	<g class="st6">
		<ellipse class="st7" cx="111.6" cy="58.8" rx="4.4" ry="2.9"/>
	</g>
</g>
</svg>
